<?xml version="1.0" standalone="no"?><!DOCTYPE svg PUBLIC "-//W3C//DTD SVG 1.1//EN" "http://www.w3.org/Graphics/SVG/1.1/DTD/svg11.dtd"><svg xmlns:xlink="http://www.w3.org/1999/xlink" version="1.1" style="font-family:'lucida grande', 'lucida sans unicode', arial, helvetica, sans-serif;font-size:12px;" xmlns="http://www.w3.org/2000/svg" width="600" height="400"><desc>Created with Highcharts 4.2.7</desc><defs><clipPath id="highcharts-48"><rect x="1" y="1" width="516" height="286"></rect></clipPath></defs><rect x="72" y="38" width="518" height="288" fill="#ffffff"></rect><path fill="rgb(255, 255, 255)" fill-opacity=" .5" d="M 72 326.5 L 590 326.5 590 268.5 72 268.5"></path><path fill="rgb(255, 255, 255)" fill-opacity=" .5" d="M 72 211.5 L 590 211.5 590 153.5 72 153.5"></path><path fill="rgb(255, 255, 255)" fill-opacity=" .5" d="M 72 96.5 L 590 96.5 590 38.5 72 38.5"></path><g class="highcharts-grid"></g><g class="highcharts-grid"><path fill="none" d="M 72 326.5 L 590 326.5" stroke="#C0C0C0" stroke-width="1" opacity="1"></path><path fill="none" d="M 72 268.5 L 590 268.5" stroke="#C0C0C0" stroke-width="1" opacity="1"></path><path fill="none" d="M 72 211.5 L 590 211.5" stroke="#C0C0C0" stroke-width="1" opacity="1"></path><path fill="none" d="M 72 153.5 L 590 153.5" stroke="#C0C0C0" stroke-width="1" opacity="1"></path><path fill="none" d="M 72 96.5 L 590 96.5" stroke="#C0C0C0" stroke-width="1" opacity="1"></path><path fill="none" d="M 72 37.5 L 590 37.5" stroke="#C0C0C0" stroke-width="1" opacity="1"></path></g><rect x="72" y="38" width="518" height="288" stroke="#026FC1" stroke-width="2" fill="none"></rect><g class="highcharts-axis"><path fill="none" d="M 129.5 326 L 129.5 336" stroke="#C0D0E0" stroke-width="1" opacity="1"></path><path fill="none" d="M 186.5 326 L 186.5 336" stroke="#C0D0E0" stroke-width="1" opacity="1"></path><path fill="none" d="M 244.5 326 L 244.5 336" stroke="#C0D0E0" stroke-width="1" opacity="1"></path><path fill="none" d="M 301.5 326 L 301.5 336" stroke="#C0D0E0" stroke-width="1" opacity="1"></path><path fill="none" d="M 359.5 326 L 359.5 336" stroke="#C0D0E0" stroke-width="1" opacity="1"></path><path fill="none" d="M 416.5 326 L 416.5 336" stroke="#C0D0E0" stroke-width="1" opacity="1"></path><path fill="none" d="M 474.5 326 L 474.5 336" stroke="#C0D0E0" stroke-width="1" opacity="1"></path><path fill="none" d="M 531.5 326 L 531.5 336" stroke="#C0D0E0" stroke-width="1" opacity="1"></path><path fill="none" d="M 590.5 326 L 590.5 336" stroke="#C0D0E0" stroke-width="1" opacity="1"></path><path fill="none" d="M 71.5 326 L 71.5 336" stroke="#C0D0E0" stroke-width="1" opacity="1"></path><path fill="none" d="M 72 326.5 L 590 326.5" stroke="#C0D0E0" stroke-width="1"></path></g><g class="highcharts-axis"><path fill="none" d="M 72 326.5 L 62 326.5" stroke="#C0D0E0" stroke-width="1" opacity="1"></path><path fill="none" d="M 72 268.5 L 62 268.5" stroke="#C0D0E0" stroke-width="1" opacity="1"></path><path fill="none" d="M 72 211.5 L 62 211.5" stroke="#C0D0E0" stroke-width="1" opacity="1"></path><path fill="none" d="M 72 153.5 L 62 153.5" stroke="#C0D0E0" stroke-width="1" opacity="1"></path><path fill="none" d="M 72 96.5 L 62 96.5" stroke="#C0D0E0" stroke-width="1" opacity="1"></path><path fill="none" d="M 72 37.5 L 62 37.5" stroke="#C0D0E0" stroke-width="1" opacity="1"></path><text x="22.733333587646484" text-anchor="middle" transform="translate(0,0) rotate(270 22.733333587646484 182)" class=" highcharts-yaxis-title" style="color:#000000;font-size:10px;font-family:'arial', sans-serif;text-transform:none;font-weight:normal;fill:#000000;" y="182"><tspan>time in nanosec</tspan></text></g><g class="highcharts-series-group"><g class="highcharts-series highcharts-series-0" transform="translate(72,38) scale(1 1)" clip-path="url(#highcharts-48)"><rect x="12.5" y="281.5" width="14" height="7" stroke="#FFFFFF" stroke-width="1" fill="#b44932" rx="0" ry="0"></rect><rect x="70.5" y="280.5" width="14" height="8" stroke="#FFFFFF" stroke-width="1" fill="#b44932" rx="0" ry="0"></rect><rect x="127.5" y="280.5" width="14" height="8" stroke="#FFFFFF" stroke-width="1" fill="#b44932" rx="0" ry="0"></rect><rect x="185.5" y="280.5" width="14" height="8" stroke="#FFFFFF" stroke-width="1" fill="#b44932" rx="0" ry="0"></rect><rect x="242.5" y="284.5" width="14" height="4" stroke="#FFFFFF" stroke-width="1" fill="#b44932" rx="0" ry="0"></rect><rect x="300.5" y="24.5" width="14" height="264" stroke="#FFFFFF" stroke-width="1" fill="#b44932" rx="0" ry="0"></rect><rect x="358.5" y="158.5" width="14" height="130" stroke="#FFFFFF" stroke-width="1" fill="#b44932" rx="0" ry="0"></rect><rect x="415.5" y="279.5" width="14" height="9" stroke="#FFFFFF" stroke-width="1" fill="#b44932" rx="0" ry="0"></rect><rect x="473.5" y="276.5" width="14" height="12" stroke="#FFFFFF" stroke-width="1" fill="#b44932" rx="0" ry="0"></rect></g><g class="highcharts-markers highcharts-series-0" transform="translate(72,38) scale(1 1)" clip-path="none"></g><g class="highcharts-series highcharts-series-1" transform="translate(72,38) scale(1 1)" clip-path="url(#highcharts-48)"><rect x="30.5" y="284.5" width="14" height="4" stroke="#FFFFFF" stroke-width="1" fill="#5eed1b" rx="0" ry="0"></rect><rect x="87.5" y="281.5" width="14" height="7" stroke="#FFFFFF" stroke-width="1" fill="#5eed1b" rx="0" ry="0"></rect><rect x="145.5" y="281.5" width="14" height="7" stroke="#FFFFFF" stroke-width="1" fill="#5eed1b" rx="0" ry="0"></rect><rect x="202.5" y="281.5" width="14" height="7" stroke="#FFFFFF" stroke-width="1" fill="#5eed1b" rx="0" ry="0"></rect><rect x="260.5" y="283.5" width="14" height="5" stroke="#FFFFFF" stroke-width="1" fill="#5eed1b" rx="0" ry="0"></rect><rect x="317.5" y="195.5" width="14" height="93" stroke="#FFFFFF" stroke-width="1" fill="#5eed1b" rx="0" ry="0"></rect><rect x="375.5" y="113.5" width="14" height="175" stroke="#FFFFFF" stroke-width="1" fill="#5eed1b" rx="0" ry="0"></rect><rect x="432.5" y="274.5" width="14" height="14" stroke="#FFFFFF" stroke-width="1" fill="#5eed1b" rx="0" ry="0"></rect><rect x="490.5" y="274.5" width="14" height="14" stroke="#FFFFFF" stroke-width="1" fill="#5eed1b" rx="0" ry="0"></rect></g><g class="highcharts-markers highcharts-series-1" transform="translate(72,38) scale(1 1)" clip-path="none"></g></g><text x="300" text-anchor="middle" class="highcharts-title" style="color:#000000;font-size:10px;font-family:'arial', sans-serif;text-transform:none;fill:#000000;width:536px;" y="17"><tspan>Decoding benchmark (lower is better)</tspan></text><g class="highcharts-data-labels highcharts-series-0" transform="translate(72,38) scale(1 1)" opacity="1"><g style="cursor:pointer;" transform="translate(9,260)"><text x="5" style="font-size: 10px; font-weight: bold; font-family: 'arial', sans-serif; color: rgb(0, 0, 0); fill: rgb(0, 0, 0); text-rendering: geometricprecision; text-shadow: rgb(255, 255, 255) 0px 0px 6px, rgb(255, 255, 255) 0px 0px 3px;" y="15"><tspan>57</tspan></text></g><g style="cursor:pointer;" transform="translate(67,259)"><text x="5" style="font-size:10px;font-weight:bold;font-family:'arial', sans-serif;color:#000000;text-shadow:0 0 6px #ffffff, 0 0 3px #ffffff;fill:#000000;text-rendering:geometricprecision;" y="15"><tspan>72</tspan></text></g><g style="cursor:pointer;" transform="translate(124,259)"><text x="5" style="font-size:10px;font-weight:bold;font-family:'arial', sans-serif;color:#000000;text-shadow:0 0 6px #ffffff, 0 0 3px #ffffff;fill:#000000;text-rendering:geometricprecision;" y="15"><tspan>72</tspan></text></g><g style="cursor:pointer;" transform="translate(182,259)"><text x="5" style="font-size:10px;font-weight:bold;font-family:'arial', sans-serif;color:#000000;text-shadow:0 0 6px #ffffff, 0 0 3px #ffffff;fill:#000000;text-rendering:geometricprecision;" y="15"><tspan>71</tspan></text></g><g style="cursor:pointer;" transform="translate(239,263)"><text x="5" style="font-size:10px;font-weight:bold;font-family:'arial', sans-serif;color:#000000;text-shadow:0 0 6px #ffffff, 0 0 3px #ffffff;fill:#000000;text-rendering:geometricprecision;" y="15"><tspan>32</tspan></text></g><g style="cursor:pointer;" transform="translate(291,3)"><text x="5" style="font-size: 10px; font-weight: bold; font-family: 'arial', sans-serif; color: rgb(0, 0, 0); fill: rgb(0, 0, 0); text-rendering: geometricprecision; text-shadow: rgb(255, 255, 255) 0px 0px 6px, rgb(255, 255, 255) 0px 0px 3px;" y="15"><tspan>2289</tspan></text></g><g style="cursor:pointer;" transform="translate(349,137)"><text x="5" style="font-size:10px;font-weight:bold;font-family:'arial', sans-serif;color:#000000;text-shadow:0 0 6px #ffffff, 0 0 3px #ffffff;fill:#000000;text-rendering:geometricprecision;" y="15"><tspan>1130</tspan></text></g><g style="cursor:pointer;" transform="translate(412,258)"><text x="5" style="font-size:10px;font-weight:bold;font-family:'arial', sans-serif;color:#000000;text-shadow:0 0 6px #ffffff, 0 0 3px #ffffff;fill:#000000;text-rendering:geometricprecision;" y="15"><tspan>75</tspan></text></g><g style="cursor:pointer;" transform="translate(467,255)"><text x="5" style="font-size: 10px; font-weight: bold; font-family: 'arial', sans-serif; color: rgb(0, 0, 0); fill: rgb(0, 0, 0); text-rendering: geometricprecision; text-shadow: rgb(255, 255, 255) 0px 0px 6px, rgb(255, 255, 255) 0px 0px 3px;" y="15"><tspan>104</tspan></text></g></g><g class="highcharts-data-labels highcharts-series-1" transform="translate(72,38) scale(1 1)" opacity="1"><g style="cursor:pointer;" transform="translate(27,263)"><text x="5" style="font-size:10px;font-weight:bold;font-family:'arial', sans-serif;color:#000000;text-shadow:0 0 6px #ffffff, 0 0 3px #ffffff;fill:#000000;text-rendering:geometricprecision;" y="15"><tspan>37</tspan></text></g><g style="cursor:pointer;" transform="translate(84,260)"><text x="5" style="font-size:10px;font-weight:bold;font-family:'arial', sans-serif;color:#000000;text-shadow:0 0 6px #ffffff, 0 0 3px #ffffff;fill:#000000;text-rendering:geometricprecision;" y="15"><tspan>62</tspan></text></g><g style="cursor:pointer;" transform="translate(142,260)"><text x="5" style="font-size:10px;font-weight:bold;font-family:'arial', sans-serif;color:#000000;text-shadow:0 0 6px #ffffff, 0 0 3px #ffffff;fill:#000000;text-rendering:geometricprecision;" y="15"><tspan>60</tspan></text></g><g style="cursor:pointer;" transform="translate(199,260)"><text x="5" style="font-size:10px;font-weight:bold;font-family:'arial', sans-serif;color:#000000;text-shadow:0 0 6px #ffffff, 0 0 3px #ffffff;fill:#000000;text-rendering:geometricprecision;" y="15"><tspan>64</tspan></text></g><g style="cursor:pointer;" transform="translate(257,262)"><text x="5" style="font-size:10px;font-weight:bold;font-family:'arial', sans-serif;color:#000000;text-shadow:0 0 6px #ffffff, 0 0 3px #ffffff;fill:#000000;text-rendering:geometricprecision;" y="15"><tspan>40</tspan></text></g><g style="cursor:pointer;" transform="translate(311,174)"><text x="5" style="font-size:10px;font-weight:bold;font-family:'arial', sans-serif;color:#000000;text-shadow:0 0 6px #ffffff, 0 0 3px #ffffff;fill:#000000;text-rendering:geometricprecision;" y="15"><tspan>809</tspan></text></g><g style="cursor:pointer;" transform="translate(366,92)"><text x="5" style="font-size:10px;font-weight:bold;font-family:'arial', sans-serif;color:#000000;text-shadow:0 0 6px #ffffff, 0 0 3px #ffffff;fill:#000000;text-rendering:geometricprecision;" y="15"><tspan>1516</tspan></text></g><g style="cursor:pointer;" transform="translate(426,253)"><text x="5" style="font-size:10px;font-weight:bold;font-family:'arial', sans-serif;color:#000000;text-shadow:0 0 6px #ffffff, 0 0 3px #ffffff;fill:#000000;text-rendering:geometricprecision;" y="15"><tspan>124</tspan></text></g><g style="cursor:pointer;" transform="translate(484,253)"><text x="5" style="font-size:10px;font-weight:bold;font-family:'arial', sans-serif;color:#000000;text-shadow:0 0 6px #ffffff, 0 0 3px #ffffff;fill:#000000;text-rendering:geometricprecision;" y="15"><tspan>125</tspan></text></g></g><g class="highcharts-legend" transform="translate(191,359)"><g><g><g class="highcharts-legend-item" transform="translate(8,3)"><text x="21" style="color:#333;font-size:9pt;font-weight:normal;cursor:pointer;font-family:'lucida grande','lucida sans unicode',arial,helvetica,sans-serif;text-transform:none;fill:#333;" text-anchor="start" y="15">msgpack-go</text><rect x="0" y="4" width="16" height="12" fill="#b44932"></rect></g><g class="highcharts-legend-item" transform="translate(124.8499984741211,3)"><text x="21" y="15" style="color:#333;font-size:9pt;font-weight:normal;cursor:pointer;font-family:'lucida grande','lucida sans unicode',arial,helvetica,sans-serif;text-transform:none;fill:#333;" text-anchor="start">cbor-gson</text><rect x="0" y="4" width="16" height="12" fill="#5eed1b"></rect></g></g></g></g><g class="highcharts-axis-labels highcharts-xaxis-labels"><text x="100.77777777777777" style="color:#000000;cursor:default;font-size:10px;font-family:'arial', sans-serif;text-transform:none;font-weight:normal;fill:#000000;" text-anchor="middle" transform="translate(0,0)" y="344" opacity="1">nil</text><text x="158.33333333333334" style="color:#000000;cursor:default;font-size:10px;font-family:'arial', sans-serif;text-transform:none;font-weight:normal;fill:#000000;" text-anchor="middle" transform="translate(0,0)" y="344" opacity="1">int64</text><text x="215.88888888888889" style="color:#000000;cursor:default;font-size:10px;font-family:'arial', sans-serif;text-transform:none;font-weight:normal;fill:#000000;" text-anchor="middle" transform="translate(0,0)" y="344" opacity="1">uint64</text><text x="273.44444444444446" style="color:#000000;cursor:default;font-size:10px;font-family:'arial', sans-serif;text-transform:none;font-weight:normal;fill:#000000;" text-anchor="middle" transform="translate(0,0)" y="344" opacity="1">float64</text><text x="331" style="color:#000000;cursor:default;font-size:10px;font-family:'arial', sans-serif;text-transform:none;font-weight:normal;fill:#000000;" text-anchor="middle" transform="translate(0,0)" y="344" opacity="1">bool</text><text x="388.55555555555554" style="color:#000000;cursor:default;font-size:10px;font-family:'arial', sans-serif;text-transform:none;font-weight:normal;fill:#000000;" text-anchor="middle" transform="translate(0,0)" y="344" opacity="1">array</text><text x="446.11111111111114" style="color:#000000;cursor:default;font-size:10px;font-family:'arial', sans-serif;text-transform:none;font-weight:normal;fill:#000000;" text-anchor="middle" transform="translate(0,0)" y="344" opacity="1">map</text><text x="503.6666666666667" style="color:#000000;cursor:default;font-size:10px;font-family:'arial', sans-serif;text-transform:none;font-weight:normal;fill:#000000;" text-anchor="middle" transform="translate(0,0)" y="344" opacity="1">bytes</text><text x="561.2222222222222" style="color:#000000;cursor:default;font-size:10px;font-family:'arial', sans-serif;text-transform:none;font-weight:normal;fill:#000000;" text-anchor="middle" transform="translate(0,0)" y="344" opacity="1">string</text></g><g class="highcharts-axis-labels highcharts-yaxis-labels"><text x="57" style="color:#000000;cursor:default;font-size:10px;font-family:'arial', sans-serif;text-transform:none;font-weight:normal;fill:#000000;width:188px;text-overflow:clip;" text-anchor="end" transform="translate(0,0)" y="330" opacity="1"><tspan>0</tspan></text><text x="57" style="color:#000000;cursor:default;font-size:10px;font-family:'arial', sans-serif;text-transform:none;font-weight:normal;fill:#000000;width:188px;text-overflow:clip;" text-anchor="end" transform="translate(0,0)" y="272" opacity="1"><tspan>500</tspan></text><text x="57" style="color:#000000;cursor:default;font-size:10px;font-family:'arial', sans-serif;text-transform:none;font-weight:normal;fill:#000000;width:188px;text-overflow:clip;" text-anchor="end" transform="translate(0,0)" y="214" opacity="1"><tspan>1000</tspan></text><text x="57" style="color:#000000;cursor:default;font-size:10px;font-family:'arial', sans-serif;text-transform:none;font-weight:normal;fill:#000000;width:188px;text-overflow:clip;" text-anchor="end" transform="translate(0,0)" y="157" opacity="1"><tspan>1500</tspan></text><text x="57" style="color:#000000;cursor:default;font-size:10px;font-family:'arial', sans-serif;text-transform:none;font-weight:normal;fill:#000000;width:188px;text-overflow:clip;" text-anchor="end" transform="translate(0,0)" y="99" opacity="1"><tspan>2000</tspan></text><text x="57" style="color:#000000;cursor:default;font-size:10px;font-family:'arial', sans-serif;text-transform:none;font-weight:normal;fill:#000000;width:188px;text-overflow:clip;" text-anchor="end" transform="translate(0,0)" y="42" opacity="1"><tspan>2500</tspan></text></g><g class="highcharts-tooltip" display="none" style="cursor:default;padding:0;pointer-events:none;white-space:nowrap;" transform="translate(0,0)"><path fill="none" d="M 3.5 0.5 L 13.5 0.5 C 16.5 0.5 16.5 0.5 16.5 3.5 L 16.5 13.5 C 16.5 16.5 16.5 16.5 13.5 16.5 L 3.5 16.5 C 0.5 16.5 0.5 16.5 0.5 13.5 L 0.5 3.5 C 0.5 0.5 0.5 0.5 3.5 0.5"  stroke="black" stroke-opacity="0.049999999999999996" stroke-width="5" transform="translate(1, 1)"></path><path fill="none" d="M 3.5 0.5 L 13.5 0.5 C 16.5 0.5 16.5 0.5 16.5 3.5 L 16.5 13.5 C 16.5 16.5 16.5 16.5 13.5 16.5 L 3.5 16.5 C 0.5 16.5 0.5 16.5 0.5 13.5 L 0.5 3.5 C 0.5 0.5 0.5 0.5 3.5 0.5"  stroke="black" stroke-opacity="0.09999999999999999" stroke-width="3" transform="translate(1, 1)"></path><path fill="none" d="M 3.5 0.5 L 13.5 0.5 C 16.5 0.5 16.5 0.5 16.5 3.5 L 16.5 13.5 C 16.5 16.5 16.5 16.5 13.5 16.5 L 3.5 16.5 C 0.5 16.5 0.5 16.5 0.5 13.5 L 0.5 3.5 C 0.5 0.5 0.5 0.5 3.5 0.5"  stroke="black" stroke-opacity="0.15" stroke-width="1" transform="translate(1, 1)"></path><path fill="rgb(255, 255, 255)" fill-opacity=" 0.85" d="M 3.5 0.5 L 13.5 0.5 C 16.5 0.5 16.5 0.5 16.5 3.5 L 16.5 13.5 C 16.5 16.5 16.5 16.5 13.5 16.5 L 3.5 16.5 C 0.5 16.5 0.5 16.5 0.5 13.5 L 0.5 3.5 C 0.5 0.5 0.5 0.5 3.5 0.5"></path><text x="8" style="font-size:12px;color:#000000;fill:#000000;" y="20"></text></g><text x="590" text-anchor="end" style="cursor:pointer;color:#909090;font-size:9px;fill:#909090;" y="395">meta-chart.com</text></svg>