<?xml version="1.0" standalone="no"?><!DOCTYPE svg PUBLIC "-//W3C//DTD SVG 1.1//EN" "http://www.w3.org/Graphics/SVG/1.1/DTD/svg11.dtd"><svg xmlns:xlink="http://www.w3.org/1999/xlink" version="1.1" style="font-family:'lucida grande', 'lucida sans unicode', arial, helvetica, sans-serif;font-size:12px;" xmlns="http://www.w3.org/2000/svg" width="600" height="400"><desc>Created with Highcharts 4.2.7</desc><defs><clipPath id="highcharts-56"><rect x="1" y="1" width="527" height="286"></rect></clipPath></defs><rect x="61" y="38" width="529" height="288" fill="#ffffff"></rect><path fill="rgb(255, 255, 255)" fill-opacity=" .5" d="M 61 326.5 L 590 326.5 590 278.5 61 278.5"></path><path fill="rgb(255, 255, 255)" fill-opacity=" .5" d="M 61 230.5 L 590 230.5 590 182.5 61 182.5"></path><path fill="rgb(255, 255, 255)" fill-opacity=" .5" d="M 61 134.5 L 590 134.5 590 86.5 61 86.5"></path><g class="highcharts-grid"></g><g class="highcharts-grid"><path fill="none" d="M 61 326.5 L 590 326.5" stroke="#C0C0C0" stroke-width="1" opacity="1"></path><path fill="none" d="M 61 278.5 L 590 278.5" stroke="#C0C0C0" stroke-width="1" opacity="1"></path><path fill="none" d="M 61 230.5 L 590 230.5" stroke="#C0C0C0" stroke-width="1" opacity="1"></path><path fill="none" d="M 61 182.5 L 590 182.5" stroke="#C0C0C0" stroke-width="1" opacity="1"></path><path fill="none" d="M 61 134.5 L 590 134.5" stroke="#C0C0C0" stroke-width="1" opacity="1"></path><path fill="none" d="M 61 86.5 L 590 86.5" stroke="#C0C0C0" stroke-width="1" opacity="1"></path><path fill="none" d="M 61 37.5 L 590 37.5" stroke="#C0C0C0" stroke-width="1" opacity="1"></path></g><rect x="61" y="38" width="529" height="288" stroke="#026FC1" stroke-width="2" fill="none"></rect><g class="highcharts-axis"><path fill="none" d="M 119.5 326 L 119.5 336" stroke="#C0D0E0" stroke-width="1" opacity="1"></path><path fill="none" d="M 178.5 326 L 178.5 336" stroke="#C0D0E0" stroke-width="1" opacity="1"></path><path fill="none" d="M 236.5 326 L 236.5 336" stroke="#C0D0E0" stroke-width="1" opacity="1"></path><path fill="none" d="M 295.5 326 L 295.5 336" stroke="#C0D0E0" stroke-width="1" opacity="1"></path><path fill="none" d="M 354.5 326 L 354.5 336" stroke="#C0D0E0" stroke-width="1" opacity="1"></path><path fill="none" d="M 413.5 326 L 413.5 336" stroke="#C0D0E0" stroke-width="1" opacity="1"></path><path fill="none" d="M 471.5 326 L 471.5 336" stroke="#C0D0E0" stroke-width="1" opacity="1"></path><path fill="none" d="M 530.5 326 L 530.5 336" stroke="#C0D0E0" stroke-width="1" opacity="1"></path><path fill="none" d="M 590.5 326 L 590.5 336" stroke="#C0D0E0" stroke-width="1" opacity="1"></path><path fill="none" d="M 60.5 326 L 60.5 336" stroke="#C0D0E0" stroke-width="1" opacity="1"></path><path fill="none" d="M 61 326.5 L 590 326.5" stroke="#C0D0E0" stroke-width="1"></path></g><g class="highcharts-axis"><path fill="none" d="M 61 326.5 L 51 326.5" stroke="#C0D0E0" stroke-width="1" opacity="1"></path><path fill="none" d="M 61 278.5 L 51 278.5" stroke="#C0D0E0" stroke-width="1" opacity="1"></path><path fill="none" d="M 61 230.5 L 51 230.5" stroke="#C0D0E0" stroke-width="1" opacity="1"></path><path fill="none" d="M 61 182.5 L 51 182.5" stroke="#C0D0E0" stroke-width="1" opacity="1"></path><path fill="none" d="M 61 134.5 L 51 134.5" stroke="#C0D0E0" stroke-width="1" opacity="1"></path><path fill="none" d="M 61 86.5 L 51 86.5" stroke="#C0D0E0" stroke-width="1" opacity="1"></path><path fill="none" d="M 61 37.5 L 51 37.5" stroke="#C0D0E0" stroke-width="1" opacity="1"></path><text x="22.866666793823242" text-anchor="middle" transform="translate(0,0) rotate(270 22.866666793823242 182)" class=" highcharts-yaxis-title" style="color:#000000;font-size:10px;font-family:'arial', sans-serif;text-transform:none;font-weight:normal;fill:#000000;" y="182">bytes</text></g><g class="highcharts-series-group"><g class="highcharts-series highcharts-series-0" transform="translate(61,38) scale(1 1)" clip-path="url(#highcharts-56)"><rect x="13.5" y="283.5" width="15" height="5" stroke="#FFFFFF" stroke-width="1" fill="#b44932" rx="0" ry="0"></rect><rect x="71.5" y="245.5" width="15" height="43" stroke="#FFFFFF" stroke-width="1" fill="#b44932" rx="0" ry="0"></rect><rect x="130.5" y="245.5" width="15" height="43" stroke="#FFFFFF" stroke-width="1" fill="#b44932" rx="0" ry="0"></rect><rect x="189.5" y="245.5" width="15" height="43" stroke="#FFFFFF" stroke-width="1" fill="#b44932" rx="0" ry="0"></rect><rect x="248.5" y="283.5" width="15" height="5" stroke="#FFFFFF" stroke-width="1" fill="#b44932" rx="0" ry="0"></rect><rect x="306.5" y="168.5" width="15" height="120" stroke="#FFFFFF" stroke-width="1" fill="#b44932" rx="0" ry="0"></rect><rect x="365.5" y="48.5" width="15" height="240" stroke="#FFFFFF" stroke-width="1" fill="#b44932" rx="0" ry="0"></rect><rect x="424.5" y="226.5" width="15" height="62" stroke="#FFFFFF" stroke-width="1" fill="#b44932" rx="0" ry="0"></rect><rect x="483.5" y="230.5" width="15" height="58" stroke="#FFFFFF" stroke-width="1" fill="#b44932" rx="0" ry="0"></rect></g><g class="highcharts-markers highcharts-series-0" transform="translate(61,38) scale(1 1)" clip-path="none"></g><g class="highcharts-series highcharts-series-1" transform="translate(61,38) scale(1 1)" clip-path="url(#highcharts-56)"><rect x="30.5" y="283.5" width="15" height="5" stroke="#FFFFFF" stroke-width="1" fill="#5eed1b" rx="0" ry="0"></rect><rect x="89.5" y="245.5" width="15" height="43" stroke="#FFFFFF" stroke-width="1" fill="#5eed1b" rx="0" ry="0"></rect><rect x="148.5" y="245.5" width="15" height="43" stroke="#FFFFFF" stroke-width="1" fill="#5eed1b" rx="0" ry="0"></rect><rect x="206.5" y="245.5" width="15" height="43" stroke="#FFFFFF" stroke-width="1" fill="#5eed1b" rx="0" ry="0"></rect><rect x="265.5" y="283.5" width="15" height="5" stroke="#FFFFFF" stroke-width="1" fill="#5eed1b" rx="0" ry="0"></rect><rect x="324.5" y="163.5" width="15" height="125" stroke="#FFFFFF" stroke-width="1" fill="#5eed1b" rx="0" ry="0"></rect><rect x="383.5" y="43.5" width="15" height="245" stroke="#FFFFFF" stroke-width="1" fill="#5eed1b" rx="0" ry="0"></rect><rect x="442.5" y="230.5" width="15" height="58" stroke="#FFFFFF" stroke-width="1" fill="#5eed1b" rx="0" ry="0"></rect><rect x="500.5" y="230.5" width="15" height="58" stroke="#FFFFFF" stroke-width="1" fill="#5eed1b" rx="0" ry="0"></rect></g><g class="highcharts-markers highcharts-series-1" transform="translate(61,38) scale(1 1)" clip-path="none"></g></g><text x="300" text-anchor="middle" class="highcharts-title" style="color:#000000;font-size:10px;font-family:'arial', sans-serif;text-transform:none;fill:#000000;width:536px;" y="17"><tspan>Memory footprint (lowe is better)</tspan></text><g class="highcharts-data-labels highcharts-series-0" transform="translate(61,38) scale(1 1)" opacity="1"><g style="cursor:pointer;" transform="translate(13,262)"><text x="5" style="font-size: 10px; font-weight: bold; font-family: 'arial', sans-serif; color: rgb(0, 0, 0); fill: rgb(0, 0, 0); text-rendering: geometricprecision; text-shadow: rgb(255, 255, 255) 0px 0px 6px, rgb(255, 255, 255) 0px 0px 3px;" y="15"><tspan>1</tspan></text></g><g style="cursor:pointer;" transform="translate(71,224)"><text x="5" style="font-size:10px;font-weight:bold;font-family:'arial', sans-serif;color:#000000;text-shadow:0 0 6px #ffffff, 0 0 3px #ffffff;fill:#000000;text-rendering:geometricprecision;" y="15"><tspan>9</tspan></text></g><g style="cursor:pointer;" transform="translate(130,224)"><text x="5" style="font-size:10px;font-weight:bold;font-family:'arial', sans-serif;color:#000000;text-shadow:0 0 6px #ffffff, 0 0 3px #ffffff;fill:#000000;text-rendering:geometricprecision;" y="15"><tspan>9</tspan></text></g><g style="cursor:pointer;" transform="translate(189,224)"><text x="5" style="font-size:10px;font-weight:bold;font-family:'arial', sans-serif;color:#000000;text-shadow:0 0 6px #ffffff, 0 0 3px #ffffff;fill:#000000;text-rendering:geometricprecision;" y="15"><tspan>9</tspan></text></g><g style="cursor:pointer;" transform="translate(248,262)"><text x="5" style="font-size:10px;font-weight:bold;font-family:'arial', sans-serif;color:#000000;text-shadow:0 0 6px #ffffff, 0 0 3px #ffffff;fill:#000000;text-rendering:geometricprecision;" y="15"><tspan>1</tspan></text></g><g style="cursor:pointer;" transform="translate(303,147)"><text x="5" style="font-size: 10px; font-weight: bold; font-family: 'arial', sans-serif; color: rgb(0, 0, 0); fill: rgb(0, 0, 0); text-rendering: geometricprecision; text-shadow: rgb(255, 255, 255) 0px 0px 6px, rgb(255, 255, 255) 0px 0px 3px;" y="15"><tspan>25</tspan></text></g><g style="cursor:pointer;" transform="translate(362,27)"><text x="5" style="font-size:10px;font-weight:bold;font-family:'arial', sans-serif;color:#000000;text-shadow:0 0 6px #ffffff, 0 0 3px #ffffff;fill:#000000;text-rendering:geometricprecision;" y="15"><tspan>50</tspan></text></g><g style="cursor:pointer;" transform="translate(421,205)"><text x="5" style="font-size:10px;font-weight:bold;font-family:'arial', sans-serif;color:#000000;text-shadow:0 0 6px #ffffff, 0 0 3px #ffffff;fill:#000000;text-rendering:geometricprecision;" y="15"><tspan>13</tspan></text></g><g style="cursor:pointer;" transform="translate(480,209)"><text x="5" style="font-size:10px;font-weight:bold;font-family:'arial', sans-serif;color:#000000;text-shadow:0 0 6px #ffffff, 0 0 3px #ffffff;fill:#000000;text-rendering:geometricprecision;" y="15"><tspan>12</tspan></text></g></g><g class="highcharts-data-labels highcharts-series-1" transform="translate(61,38) scale(1 1)" opacity="1"><g style="cursor:pointer;" transform="translate(30,262)"><text x="5" style="font-size:10px;font-weight:bold;font-family:'arial', sans-serif;color:#000000;text-shadow:0 0 6px #ffffff, 0 0 3px #ffffff;fill:#000000;text-rendering:geometricprecision;" y="15"><tspan>1</tspan></text></g><g style="cursor:pointer;" transform="translate(89,224)"><text x="5" style="font-size:10px;font-weight:bold;font-family:'arial', sans-serif;color:#000000;text-shadow:0 0 6px #ffffff, 0 0 3px #ffffff;fill:#000000;text-rendering:geometricprecision;" y="15"><tspan>9</tspan></text></g><g style="cursor:pointer;" transform="translate(148,224)"><text x="5" style="font-size:10px;font-weight:bold;font-family:'arial', sans-serif;color:#000000;text-shadow:0 0 6px #ffffff, 0 0 3px #ffffff;fill:#000000;text-rendering:geometricprecision;" y="15"><tspan>9</tspan></text></g><g style="cursor:pointer;" transform="translate(206,224)"><text x="5" style="font-size:10px;font-weight:bold;font-family:'arial', sans-serif;color:#000000;text-shadow:0 0 6px #ffffff, 0 0 3px #ffffff;fill:#000000;text-rendering:geometricprecision;" y="15"><tspan>9</tspan></text></g><g style="cursor:pointer;" transform="translate(265,262)"><text x="5" style="font-size:10px;font-weight:bold;font-family:'arial', sans-serif;color:#000000;text-shadow:0 0 6px #ffffff, 0 0 3px #ffffff;fill:#000000;text-rendering:geometricprecision;" y="15"><tspan>1</tspan></text></g><g style="cursor:pointer;" transform="translate(321,142)"><text x="5" style="font-size:10px;font-weight:bold;font-family:'arial', sans-serif;color:#000000;text-shadow:0 0 6px #ffffff, 0 0 3px #ffffff;fill:#000000;text-rendering:geometricprecision;" y="15"><tspan>26</tspan></text></g><g style="cursor:pointer;" transform="translate(380,22)"><text x="5" style="font-size:10px;font-weight:bold;font-family:'arial', sans-serif;color:#000000;text-shadow:0 0 6px #ffffff, 0 0 3px #ffffff;fill:#000000;text-rendering:geometricprecision;" y="15"><tspan>51</tspan></text></g><g style="cursor:pointer;" transform="translate(439,209)"><text x="5" style="font-size:10px;font-weight:bold;font-family:'arial', sans-serif;color:#000000;text-shadow:0 0 6px #ffffff, 0 0 3px #ffffff;fill:#000000;text-rendering:geometricprecision;" y="15"><tspan>12</tspan></text></g><g style="cursor:pointer;" transform="translate(497,209)"><text x="5" style="font-size:10px;font-weight:bold;font-family:'arial', sans-serif;color:#000000;text-shadow:0 0 6px #ffffff, 0 0 3px #ffffff;fill:#000000;text-rendering:geometricprecision;" y="15"><tspan>12</tspan></text></g></g><g class="highcharts-legend" transform="translate(191,359)"><g><g><g class="highcharts-legend-item" transform="translate(8,3)"><text x="21" style="color:#333;font-size:9pt;font-weight:normal;cursor:pointer;font-family:'lucida grande','lucida sans unicode',arial,helvetica,sans-serif;text-transform:none;fill:#333;" text-anchor="start" y="15">msgpack-go</text><rect x="0" y="4" width="16" height="12" fill="#b44932"></rect></g><g class="highcharts-legend-item" transform="translate(124.8499984741211,3)"><text x="21" y="15" style="color:#333;font-size:9pt;font-weight:normal;cursor:pointer;font-family:'lucida grande','lucida sans unicode',arial,helvetica,sans-serif;text-transform:none;fill:#333;" text-anchor="start">cbor-gson</text><rect x="0" y="4" width="16" height="12" fill="#5eed1b"></rect></g></g></g></g><g class="highcharts-axis-labels highcharts-xaxis-labels"><text x="90.38888888888889" style="color:#000000;cursor:default;font-size:10px;font-family:'arial', sans-serif;text-transform:none;font-weight:normal;fill:#000000;" text-anchor="middle" transform="translate(0,0)" y="344" opacity="1">nil</text><text x="149.16666666666666" style="color:#000000;cursor:default;font-size:10px;font-family:'arial', sans-serif;text-transform:none;font-weight:normal;fill:#000000;" text-anchor="middle" transform="translate(0,0)" y="344" opacity="1">int64</text><text x="207.94444444444446" style="color:#000000;cursor:default;font-size:10px;font-family:'arial', sans-serif;text-transform:none;font-weight:normal;fill:#000000;" text-anchor="middle" transform="translate(0,0)" y="344" opacity="1">uint64</text><text x="266.7222222222222" style="color:#000000;cursor:default;font-size:10px;font-family:'arial', sans-serif;text-transform:none;font-weight:normal;fill:#000000;" text-anchor="middle" transform="translate(0,0)" y="344" opacity="1">float64</text><text x="325.5" style="color:#000000;cursor:default;font-size:10px;font-family:'arial', sans-serif;text-transform:none;font-weight:normal;fill:#000000;" text-anchor="middle" transform="translate(0,0)" y="344" opacity="1">bool</text><text x="384.27777777777777" style="color:#000000;cursor:default;font-size:10px;font-family:'arial', sans-serif;text-transform:none;font-weight:normal;fill:#000000;" text-anchor="middle" transform="translate(0,0)" y="344" opacity="1">array</text><text x="443.05555555555554" style="color:#000000;cursor:default;font-size:10px;font-family:'arial', sans-serif;text-transform:none;font-weight:normal;fill:#000000;" text-anchor="middle" transform="translate(0,0)" y="344" opacity="1">map</text><text x="501.83333333333326" style="color:#000000;cursor:default;font-size:10px;font-family:'arial', sans-serif;text-transform:none;font-weight:normal;fill:#000000;" text-anchor="middle" transform="translate(0,0)" y="344" opacity="1">bytes</text><text x="560.6111111111111" style="color:#000000;cursor:default;font-size:10px;font-family:'arial', sans-serif;text-transform:none;font-weight:normal;fill:#000000;" text-anchor="middle" transform="translate(0,0)" y="344" opacity="1">string</text></g><g class="highcharts-axis-labels highcharts-yaxis-labels"><text x="46" style="color:#000000;cursor:default;font-size:10px;font-family:'arial', sans-serif;text-transform:none;font-weight:normal;fill:#000000;width:188px;text-overflow:clip;" text-anchor="end" transform="translate(0,0)" y="330" opacity="1"><tspan>0</tspan></text><text x="46" style="color:#000000;cursor:default;font-size:10px;font-family:'arial', sans-serif;text-transform:none;font-weight:normal;fill:#000000;width:188px;text-overflow:clip;" text-anchor="end" transform="translate(0,0)" y="282" opacity="1"><tspan>10</tspan></text><text x="46" style="color:#000000;cursor:default;font-size:10px;font-family:'arial', sans-serif;text-transform:none;font-weight:normal;fill:#000000;width:188px;text-overflow:clip;" text-anchor="end" transform="translate(0,0)" y="234" opacity="1"><tspan>20</tspan></text><text x="46" style="color:#000000;cursor:default;font-size:10px;font-family:'arial', sans-serif;text-transform:none;font-weight:normal;fill:#000000;width:188px;text-overflow:clip;" text-anchor="end" transform="translate(0,0)" y="186" opacity="1"><tspan>30</tspan></text><text x="46" style="color:#000000;cursor:default;font-size:10px;font-family:'arial', sans-serif;text-transform:none;font-weight:normal;fill:#000000;width:188px;text-overflow:clip;" text-anchor="end" transform="translate(0,0)" y="138" opacity="1"><tspan>40</tspan></text><text x="46" style="color:#000000;cursor:default;font-size:10px;font-family:'arial', sans-serif;text-transform:none;font-weight:normal;fill:#000000;width:188px;text-overflow:clip;" text-anchor="end" transform="translate(0,0)" y="90" opacity="1"><tspan>50</tspan></text><text x="46" style="color:#000000;cursor:default;font-size:10px;font-family:'arial', sans-serif;text-transform:none;font-weight:normal;fill:#000000;width:188px;text-overflow:clip;" text-anchor="end" transform="translate(0,0)" y="42" opacity="1"><tspan>60</tspan></text></g><g class="highcharts-tooltip" display="none" style="cursor:default;padding:0;pointer-events:none;white-space:nowrap;" transform="translate(0,0)"><path fill="none" d="M 3.5 0.5 L 13.5 0.5 C 16.5 0.5 16.5 0.5 16.5 3.5 L 16.5 13.5 C 16.5 16.5 16.5 16.5 13.5 16.5 L 3.5 16.5 C 0.5 16.5 0.5 16.5 0.5 13.5 L 0.5 3.5 C 0.5 0.5 0.5 0.5 3.5 0.5"  stroke="black" stroke-opacity="0.049999999999999996" stroke-width="5" transform="translate(1, 1)"></path><path fill="none" d="M 3.5 0.5 L 13.5 0.5 C 16.5 0.5 16.5 0.5 16.5 3.5 L 16.5 13.5 C 16.5 16.5 16.5 16.5 13.5 16.5 L 3.5 16.5 C 0.5 16.5 0.5 16.5 0.5 13.5 L 0.5 3.5 C 0.5 0.5 0.5 0.5 3.5 0.5"  stroke="black" stroke-opacity="0.09999999999999999" stroke-width="3" transform="translate(1, 1)"></path><path fill="none" d="M 3.5 0.5 L 13.5 0.5 C 16.5 0.5 16.5 0.5 16.5 3.5 L 16.5 13.5 C 16.5 16.5 16.5 16.5 13.5 16.5 L 3.5 16.5 C 0.5 16.5 0.5 16.5 0.5 13.5 L 0.5 3.5 C 0.5 0.5 0.5 0.5 3.5 0.5"  stroke="black" stroke-opacity="0.15" stroke-width="1" transform="translate(1, 1)"></path><path fill="rgb(255, 255, 255)" fill-opacity=" 0.85" d="M 3.5 0.5 L 13.5 0.5 C 16.5 0.5 16.5 0.5 16.5 3.5 L 16.5 13.5 C 16.5 16.5 16.5 16.5 13.5 16.5 L 3.5 16.5 C 0.5 16.5 0.5 16.5 0.5 13.5 L 0.5 3.5 C 0.5 0.5 0.5 0.5 3.5 0.5"></path><text x="8" style="font-size:12px;color:#000000;fill:#000000;" y="20"></text></g><text x="590" text-anchor="end" style="cursor:pointer;color:#909090;font-size:9px;fill:#909090;" y="395">meta-chart.com</text></svg>